<?xml version="1.0" encoding="UTF-8" standalone="no"?>
<svg width="349px" height="124px" viewBox="0 0 349 124" version="1.1" xmlns="http://www.w3.org/2000/svg" xmlns:xlink="http://www.w3.org/1999/xlink">
    <!-- Generator: Sketch 3.7.1 (28215) - http://www.bohemiancoding.com/sketch -->
    <title>pp-logo-white</title>
    <desc>Created with Sketch.</desc>
    <defs></defs>
    <g id="Page-1" stroke="none" stroke-width="1" fill="none" fill-rule="evenodd">
        <g id="pp-logo-white" fill="#FFFFFF">
            <path d="M135.94,75.515 C135.94,77.02 137.13,78.21 138.635,78.21 C140.14,78.21 141.33,77.02 141.33,75.515 L141.33,70.65 L145.425,70.65 C150.92,70.65 155.33,67.71 155.33,62.04 L155.33,61.97 C155.33,56.965 151.795,53.5 145.95,53.5 L138.635,53.5 C137.13,53.5 135.94,54.69 135.94,56.195 L135.94,75.515 Z M141.33,65.855 L141.33,58.365 L145.495,58.365 C148.19,58.365 149.87,59.66 149.87,62.075 L149.87,62.145 C149.87,64.245 148.295,65.855 145.6,65.855 L141.33,65.855 Z M158.69,54.83 C158.69,56.37 159.985,57.35 161.665,57.35 C163.345,57.35 164.64,56.37 164.64,54.83 L164.64,54.76 C164.64,53.22 163.345,52.275 161.665,52.275 C159.985,52.275 158.69,53.22 158.69,54.76 L158.69,54.83 Z M159.005,75.55 C159.005,77.02 160.195,78.21 161.665,78.21 C163.135,78.21 164.325,77.02 164.325,75.55 L164.325,61.69 C164.325,60.22 163.135,59.03 161.665,59.03 C160.195,59.03 159.005,60.22 159.005,61.69 L159.005,75.55 Z M178.185,78.42 C181.265,78.42 183.26,77.44 184.835,76.005 C185.29,75.585 185.605,75.025 185.605,74.325 C185.605,73.065 184.625,72.05 183.365,72.05 C182.735,72.05 182.21,72.33 181.93,72.54 C180.915,73.345 179.83,73.835 178.43,73.835 C175.525,73.835 173.67,71.525 173.67,68.655 L173.67,68.585 C173.67,65.82 175.56,63.475 178.22,63.475 C179.62,63.475 180.6,63.93 181.545,64.665 C181.86,64.91 182.385,65.19 183.085,65.19 C184.415,65.19 185.5,64.14 185.5,62.81 C185.5,61.9 185.01,61.27 184.66,60.99 C183.085,59.66 181.09,58.89 178.255,58.89 C172.515,58.89 168.42,63.3 168.42,68.655 L168.42,68.725 C168.42,74.08 172.55,78.42 178.185,78.42 L178.185,78.42 Z M189.315,75.55 C189.315,77.02 190.505,78.21 191.975,78.21 C193.445,78.21 194.635,77.02 194.635,75.55 L194.635,72.505 L196.77,70.58 L201.425,76.985 C202.055,77.86 202.685,78.21 203.735,78.21 C205.065,78.21 206.22,77.23 206.22,75.795 C206.22,75.2 206.01,74.71 205.555,74.08 L200.55,67.325 L204.75,63.72 C205.485,63.02 205.975,62.32 205.975,61.41 C205.975,60.185 205.065,59.03 203.63,59.03 C202.685,59.03 202.055,59.485 201.285,60.22 L194.635,66.52 L194.635,54.9 C194.635,53.43 193.445,52.24 191.975,52.24 C190.505,52.24 189.315,53.43 189.315,54.9 L189.315,75.55 Z M210.14,75.55 C210.14,77.02 211.33,78.21 212.8,78.21 C214.27,78.21 215.46,77.02 215.46,75.55 L215.46,54.9 C215.46,53.43 214.27,52.24 212.8,52.24 C211.33,52.24 210.14,53.43 210.14,54.9 L210.14,75.55 Z M224.77,67.15 C225.19,64.735 226.625,63.16 228.83,63.16 C231.07,63.16 232.47,64.77 232.785,67.15 L224.77,67.15 Z M235.865,76.145 C236.25,75.795 236.565,75.27 236.565,74.57 C236.565,73.38 235.69,72.47 234.5,72.47 C233.94,72.47 233.59,72.61 233.205,72.89 C232.12,73.695 230.895,74.15 229.425,74.15 C227.045,74.15 225.365,72.89 224.84,70.475 L235.375,70.475 C236.775,70.475 237.86,69.46 237.86,67.92 C237.86,64.035 235.095,58.89 228.83,58.89 C223.37,58.89 219.555,63.3 219.555,68.655 L219.555,68.725 C219.555,74.465 223.72,78.42 229.355,78.42 C232.085,78.42 234.22,77.545 235.865,76.145 L235.865,76.145 Z M241.92,81.15 C241.92,82.62 243.11,83.81 244.58,83.81 C246.05,83.81 247.24,82.62 247.24,81.15 L247.24,75.55 C248.5,77.055 250.25,78.35 253.085,78.35 C257.53,78.35 261.625,74.92 261.625,68.655 L261.625,68.585 C261.625,62.32 257.46,58.89 253.085,58.89 C250.32,58.89 248.535,60.185 247.24,61.935 L247.24,61.69 C247.24,60.22 246.05,59.03 244.58,59.03 C243.11,59.03 241.92,60.22 241.92,61.69 L241.92,81.15 Z M251.72,73.835 C249.235,73.835 247.17,71.77 247.17,68.655 L247.17,68.585 C247.17,65.47 249.235,63.405 251.72,63.405 C254.205,63.405 256.305,65.47 256.305,68.585 L256.305,68.655 C256.305,71.805 254.205,73.835 251.72,73.835 L251.72,73.835 Z M265.475,54.83 C265.475,56.37 266.77,57.35 268.45,57.35 C270.13,57.35 271.425,56.37 271.425,54.83 L271.425,54.76 C271.425,53.22 270.13,52.275 268.45,52.275 C266.77,52.275 265.475,53.22 265.475,54.76 L265.475,54.83 Z M265.79,75.55 C265.79,77.02 266.98,78.21 268.45,78.21 C269.92,78.21 271.11,77.02 271.11,75.55 L271.11,61.69 C271.11,60.22 269.92,59.03 268.45,59.03 C266.98,59.03 265.79,60.22 265.79,61.69 L265.79,75.55 Z M284.97,78.42 C288.05,78.42 290.045,77.44 291.62,76.005 C292.075,75.585 292.39,75.025 292.39,74.325 C292.39,73.065 291.41,72.05 290.15,72.05 C289.52,72.05 288.995,72.33 288.715,72.54 C287.7,73.345 286.615,73.835 285.215,73.835 C282.31,73.835 280.455,71.525 280.455,68.655 L280.455,68.585 C280.455,65.82 282.345,63.475 285.005,63.475 C286.405,63.475 287.385,63.93 288.33,64.665 C288.645,64.91 289.17,65.19 289.87,65.19 C291.2,65.19 292.285,64.14 292.285,62.81 C292.285,61.9 291.795,61.27 291.445,60.99 C289.87,59.66 287.875,58.89 285.04,58.89 C279.3,58.89 275.205,63.3 275.205,68.655 L275.205,68.725 C275.205,74.08 279.335,78.42 284.97,78.42 L284.97,78.42 Z M296.1,75.55 C296.1,77.02 297.29,78.21 298.76,78.21 C300.23,78.21 301.42,77.02 301.42,75.55 L301.42,72.505 L303.555,70.58 L308.21,76.985 C308.84,77.86 309.47,78.21 310.52,78.21 C311.85,78.21 313.005,77.23 313.005,75.795 C313.005,75.2 312.795,74.71 312.34,74.08 L307.335,67.325 L311.535,63.72 C312.27,63.02 312.76,62.32 312.76,61.41 C312.76,60.185 311.85,59.03 310.415,59.03 C309.47,59.03 308.84,59.485 308.07,60.22 L301.42,66.52 L301.42,54.9 C301.42,53.43 300.23,52.24 298.76,52.24 C297.29,52.24 296.1,53.43 296.1,54.9 L296.1,75.55 Z" id="Picklepick"></path>
            <g id="Imported-Layers" transform="translate(25.000000, 19.000000)">
                <path d="M63.6869913,47.4371507 C52.0479215,47.4371507 42.5785756,37.9866575 42.5785756,26.3719726 C42.5785756,14.7385479 33.1784157,5.30284932 21.5445349,5.19682192 C21.7259012,4.72980822 21.9725,4.25786301 22.2796366,3.71786301 C22.9598837,2.52394521 22.5400727,1.00430137 21.3426599,0.325479452 C20.1447529,-0.353342466 18.6219186,0.0646027397 17.9431541,1.2619726 C17.1927326,2.57942466 16.4761628,4.01128767 16.3044331,5.81375342 C7.0194186,8.07632877 0.119098837,16.4100822 0.119098837,26.3719726 C0.119098837,61.350411 28.6351163,89.8074247 63.6869913,89.8074247 C75.4118023,89.8074247 84.9164826,80.3219178 84.9164826,68.622411 C84.9164826,56.9229041 75.4118023,47.4371507 63.6869913,47.4371507 L63.6869913,47.4371507 Z M63.6869913,84.8305479 C31.3855087,84.8305479 5.10642442,58.6060274 5.10642442,26.3719726 C5.10642442,17.4346027 12.3927035,10.163589 21.3488372,10.163589 C30.3049709,10.163589 37.5910029,17.4346027 37.5910029,26.3719726 C37.5910029,40.7315342 49.2975291,52.414274 63.6869913,52.414274 C72.6428779,52.414274 79.929157,59.6850411 79.929157,68.622411 C79.929157,77.5595342 72.6428779,84.8305479 63.6869913,84.8305479 L63.6869913,84.8305479 Z" id="Fill-1"></path>
                <path d="M24.7730523,19.0067671 C22.936657,19.0067671 21.4481686,20.492137 21.4481686,22.3246849 C21.4481686,24.1569863 22.936657,25.6426027 24.7730523,25.6426027 C26.6094477,25.6426027 28.097936,24.1569863 28.097936,22.3246849 C28.097936,20.492137 26.6094477,19.0067671 24.7730523,19.0067671" id="Fill-2"></path>
                <path d="M18.1232849,33.9376438 C16.2868895,33.9376438 14.7984012,35.4230137 14.7984012,37.2555616 C14.7984012,39.087863 16.2868895,40.5734795 18.1232849,40.5734795 C19.9594331,40.5734795 21.4481686,39.087863 21.4481686,37.2555616 C21.4481686,35.4230137 19.9594331,33.9376438 18.1232849,33.9376438" id="Fill-3"></path>
                <path d="M53.034811,70.4349863 C51.1986628,70.4349863 49.7099273,71.9203562 49.7099273,73.7529041 C49.7099273,75.5852055 51.1986628,77.0708219 53.034811,77.0708219 C54.8712064,77.0708219 56.3599419,75.5852055 56.3599419,73.7529041 C56.3599419,71.9203562 54.8712064,70.4349863 53.034811,70.4349863" id="Fill-4"></path>
                <path d="M64.6721512,67.1170685 C64.6721512,68.9493699 66.1606395,70.4349863 67.9970349,70.4349863 C69.8334302,70.4349863 71.3219186,68.9493699 71.3219186,67.1170685 C71.3219186,65.2845205 69.8334302,63.7991507 67.9970349,63.7991507 C66.1606395,63.7991507 64.6721512,65.2845205 64.6721512,67.1170685 Z" id="Fill-5"></path>
                <path d="M34.7479506,52.1864384 C32.9115552,52.1864384 31.4230669,53.6718082 31.4230669,55.5043562 C31.4230669,57.3366575 32.9115552,58.822274 34.7479506,58.822274 C36.5840988,58.822274 38.0728343,57.3366575 38.0728343,55.5043562 C38.0728343,53.6718082 36.5840988,52.1864384 34.7479506,52.1864384" id="Fill-6"></path>
            </g>
        </g>
    </g>
</svg>